<svg xmlns="http://www.w3.org/2000/svg" width="393.35" height="341.35" viewBox="0 0 393.35 341.35">
  <metadata><?xpacket begin="﻿" id="W5M0MpCehiHzreSzNTczkc9d"?>
<x:xmpmeta xmlns:x="adobe:ns:meta/" x:xmptk="Adobe XMP Core 5.6-c138 79.159824, 2016/09/14-01:09:01        ">
   <rdf:RDF xmlns:rdf="http://www.w3.org/1999/02/22-rdf-syntax-ns#">
      <rdf:Description rdf:about=""/>
   </rdf:RDF>
</x:xmpmeta>
                                                                                                    
                                                                                                    
                                                                                                    
                                                                                                    
                                                                                                    
                                                                                                    
                                                                                                    
                                                                                                    
                                                                                                    
                                                                                                    
                                                                                                    
                                                                                                    
                                                                                                    
                                                                                                    
                                                                                                    
                                                                                                    
                                                                                                    
                                                                                                    
                                                                                                    
                                                                                                    
                           
<?xpacket end="w"?></metadata>
<defs>
    <style>
      .cls-1 {
        fill: #ebebeb;
      }

      .cls-1, .cls-2 {
        stroke: #000;
        stroke-width: 6.35px;
      }

      .cls-2 {
        fill: none;
      }

      .cls-2, .cls-3 {
        fill-rule: evenodd;
      }
    </style>
  </defs>
  <circle class="cls-1" cx="200.175" cy="170.175" r="144"/>
  <path id="Polygon_1_copy" data-name="Polygon 1 copy" class="cls-2" d="M407,564.5L310.25,732H116.75L20,564.5,116.75,397h193.5Z" transform="translate(-16.825 -393.825)"/>
  <path class="cls-3" d="M215.5,509.053a42.743,42.743,0,0,0-21.382,79.765v4.027a8.792,8.792,0,0,0-1.739,12.43,8.807,8.807,0,0,0-1.824,5.342,8.916,8.916,0,0,0,8.909,8.909h32.071a8.867,8.867,0,0,0,7.085-14.254,8.794,8.794,0,0,0-1.739-12.431v-4.027A42.741,42.741,0,0,0,215.5,509.053ZM231.536,612.4H199.464a1.782,1.782,0,0,1,0-3.564h32.072A1.782,1.782,0,0,1,231.536,612.4Zm0-10.69H199.464a1.782,1.782,0,0,1,0-3.564h32.072A1.782,1.782,0,0,1,231.536,601.708Zm0.156-18.182-1.938,1v6.493H219.063V565.564a14.254,14.254,0,1,0-7.127,0v25.452h-10.69v-6.493l-1.939-.994A35.638,35.638,0,1,1,231.692,583.526ZM215.5,558.944a7.127,7.127,0,1,1,7.127-7.127A7.134,7.134,0,0,1,215.5,558.944Zm107.9,25.647a144.476,144.476,0,0,0-12.447-34.214c8.311-28.445,4.622-54.819-11.945-71.383-14.756-14.753-37.367-19.71-63.712-13.948-2.562.56-5.127,1.244-7.7,1.992a144.463,144.463,0,0,0-34.192-12.433c-29.118-6.375-54.127-.909-70.423,15.388S101.229,511.3,107.6,540.421a144.465,144.465,0,0,0,12.444,34.214c-8.464,28.84-4.444,55,11.945,71.386,10.744,10.744,25.654,16.29,43.133,16.29a96.536,96.536,0,0,0,20.575-2.342c2.563-.56,5.128-1.244,7.7-1.992a144.456,144.456,0,0,0,34.191,12.433A106.942,106.942,0,0,0,260.361,673c19.315,0,35.789-6.122,47.648-17.982C324.308,638.726,329.771,613.713,323.4,584.591ZM293.973,484.034c13.349,13.349,17.129,34.149,12.034,57.245A198.9,198.9,0,0,0,236.725,472C259.614,466.953,280.488,470.549,293.973,484.034ZM114.559,538.9c-5.833-26.664-1.051-49.346,13.467-63.867,10.484-10.485,25.219-15.89,42.645-15.89a99.5,99.5,0,0,1,21.22,2.423,133.385,133.385,0,0,1,26.039,8.72c-20.006,7.619-39.715,20.633-56.867,37.784a180.422,180.422,0,0,0-17.033,19.725,15.8,15.8,0,0,0-5.146-.923,16,16,0,0,0-11.044,27.612c-1.682,3.513-3.218,7.012-4.547,10.484A133.457,133.457,0,0,1,114.559,538.9Zm33.235,4.009A8.909,8.909,0,1,1,138.885,534,8.92,8.92,0,0,1,147.794,542.908Zm-10.766,98.074c-13.167-13.168-17.159-33.816-12-57.185a198.934,198.934,0,0,0,69.257,69.227C171.391,658.07,150.516,654.474,137.028,640.982Zm23.311-23.313a184.391,184.391,0,0,1-32.663-43.751,130.674,130.674,0,0,1,6.332-15.815,15.8,15.8,0,0,0,4.875.841,16.021,16.021,0,0,0,11.264-27.429,174.344,174.344,0,0,1,15.958-18.406c18.805-18.806,40.268-31.891,60.765-38.452a190.129,190.129,0,0,1,76.477,76.475,142.687,142.687,0,0,1-19.121,37.654,15.872,15.872,0,0,0-6.365-1.333A16.007,16.007,0,0,0,264.487,612.3c-18.705,18.587-40,31.545-60.348,38.059A184.386,184.386,0,0,1,160.339,617.669Zm126.432-14.18a8.909,8.909,0,1,1-8.909-8.909A8.917,8.917,0,0,1,286.771,603.489Zm16.2,46.5c-14.514,14.518-37.185,19.307-63.866,13.467a133.6,133.6,0,0,1-26.038-8.72c19.9-7.581,39.512-20.5,56.6-37.529a15.864,15.864,0,0,0,8.193,2.324A16.056,16.056,0,0,0,293.9,603.489a15.888,15.888,0,0,0-3.959-10.434,153.228,153.228,0,0,0,17.768-33.007,133.4,133.4,0,0,1,8.734,26.072C322.274,612.78,317.492,635.466,302.975,649.984Z" transform="translate(-16.825 -393.825)"/>
</svg>
