<?xml version="1.0" encoding="iso-8859-1"?>
<!-- Generator: Adobe Illustrator 19.0.0, SVG Export Plug-In . SVG Version: 6.00 Build 0)  -->
<svg version="1.1" id="Capa_1" xmlns="http://www.w3.org/2000/svg" xmlns:xlink="http://www.w3.org/1999/xlink" x="0px" y="0px"
	 viewBox="0 0 496 496" style="enable-background:new 0 0 496 496;" xml:space="preserve">
<g>
	<circle style="fill:#FFCB57;" cx="430.934" cy="200" r="40"/>
	<circle style="fill:#FFCB57;" cx="246.934" cy="96" r="40"/>
	<circle style="fill:#FFCB57;" cx="254.934" cy="304" r="40"/>
</g>
<path style="fill:#E56565;" d="M310.934,248c-26.472,0-48-21.528-48-48s21.528-48,48-48s48,21.528,48,48S337.406,248,310.934,248z
	 M310.934,168c-17.648,0-32,14.352-32,32s14.352,32,32,32s32-14.352,32-32S328.582,168,310.934,168z"/>
<g>
	<path style="fill:#3F3A34;" d="M448.71,230c21.296,26.256,29.16,48.848,21.568,62c-9.184,15.92-43.208,18.92-89.48,6.76
		c3.688-16.544,6.456-34.608,8.152-53.792c6.832-4.792,13.52-9.664,19.896-14.68l-9.88-12.576c-2.8,2.2-5.72,4.352-8.616,6.512
		c0.376-7.936,0.584-16,0.584-24.224c0-8.232-0.208-16.312-0.584-24.256c3.928,2.928,7.824,5.88,11.576,8.888l10-12.496
		c-7.32-5.856-15.04-11.536-22.968-17.104c-1.704-19.184-4.464-37.24-8.152-53.792c46.264-12.152,80.288-9.16,89.472,6.752
		c7.592,13.144-0.272,35.728-21.56,61.984l12.432,10.08c26.072-32.152,34.232-60.576,22.992-80.056
		c-13.864-24.008-54.944-27.976-107.184-14.32C362.654,33.576,338.654,0,310.934,0c-22.752,0-43.464,21.728-58.312,61.184
		l14.976,5.632C279.75,34.52,295.55,16,310.934,16c18.376,0,37.992,27.976,50.592,74.136c-16.16,5.072-33.152,11.712-50.608,19.816
		c-7.008-3.256-14.008-6.384-20.984-9.216l-6.016,14.832c2.76,1.12,5.536,2.36,8.312,3.552c-7.072,3.656-14.168,7.472-21.304,11.592
		c-7.096,4.096-13.968,8.36-20.72,12.688c0.56-4.776,1.152-9.528,1.864-14.2l-15.824-2.4c-1.392,9.176-2.432,18.616-3.28,28.176
		c-15.584,10.928-29.88,22.344-42.576,33.952c-5.904-5.936-11.448-11.888-16.32-17.808c-22.008-26.752-30.208-49.76-22.496-63.128
		c6.704-11.624,26.576-16.6,54.512-13.64l1.68-15.912c-35.52-3.752-59.744,3.704-70.048,21.552c-11.4,19.752-2.88,48.624,24,81.296
		c5.128,6.232,10.944,12.48,17.128,18.712c-6.256,6.304-12.136,12.624-17.304,18.92l12.368,10.152c4.912-5.984,10.512-12,16.48-18
		c12.696,11.616,26.992,23.024,42.576,33.952c0.848,9.56,1.888,19,3.28,28.176l15.824-2.4c-0.712-4.672-1.296-9.424-1.864-14.2
		c6.752,4.328,13.624,8.592,20.72,12.688c7.12,4.112,14.208,7.96,21.264,11.608c-2.76,1.184-5.52,2.416-8.272,3.536l6.016,14.832
		c6.984-2.832,14-5.968,21.016-9.232c17.448,8.104,34.424,14.72,50.584,19.792C348.934,356,329.318,384,310.934,384
		c-15.392,0-31.192-18.536-43.344-50.848l-14.976,5.632c14.84,39.48,35.56,61.216,58.32,61.216c27.72,0,51.712-33.568,66.016-85.656
		c19.704,5.152,37.832,7.808,53.496,7.808c25.872,0,45.064-7.2,53.696-22.152c11.248-19.488,3.08-47.92-23-80.072L448.71,230z
		 M365.358,105.728c2.568,11.688,4.736,24.24,6.328,37.704c-6.768-4.344-13.656-8.616-20.752-12.712
		c-7.096-4.096-14.232-7.92-21.384-11.616C341.998,113.752,353.95,109.352,365.358,105.728z M201.982,200
		c9.064-8.24,18.92-16.392,29.584-24.336c-0.376,8.032-0.632,16.136-0.632,24.336s0.256,16.304,0.632,24.344
		C220.902,216.392,211.046,208.24,201.982,200z M278.934,255.424c-10.656-6.152-20.912-12.592-30.704-19.232
		c-0.864-11.84-1.296-23.928-1.296-36.192s0.432-24.352,1.296-36.192c9.792-6.64,20.048-13.08,30.704-19.232
		c10.864-6.272,21.544-11.864,32.008-16.928c10.696,5.176,21.384,10.808,31.992,16.928s20.848,12.536,30.656,19.192
		c0.848,11.608,1.344,23.672,1.344,36.232c0,12.544-0.496,24.6-1.344,36.2c-9.824,6.664-20.056,13.104-30.656,19.224
		c-10.608,6.128-21.304,11.752-32,16.936C300.47,267.288,289.798,261.696,278.934,255.424z M329.542,280.904
		c7.152-3.696,14.296-7.52,21.392-11.616s13.976-8.368,20.752-12.72c-1.592,13.456-3.76,26.016-6.328,37.712
		C353.95,290.656,341.998,286.256,329.542,280.904z"/>
	<path style="fill:#3F3A34;" d="M162.366,301.352l-6.88,14.448c9.376,4.472,21.208,6.704,35.36,6.704
		c7.736,0,16.168-0.664,25.264-2.008l-2.336-15.832C191.566,307.952,173.798,306.808,162.366,301.352z"/>
	<path style="fill:#3F3A34;" d="M246.934,120c13.232,0,24-10.768,24-24s-10.768-24-24-24c-13.232,0-24,10.768-24,24
		S233.702,120,246.934,120z M246.934,88c4.408,0,8,3.592,8,8s-3.592,8-8,8s-8-3.592-8-8S242.526,88,246.934,88z"/>
	<path style="fill:#3F3A34;" d="M430.934,176c-13.232,0-24,10.768-24,24s10.768,24,24,24s24-10.768,24-24S444.166,176,430.934,176z
		 M430.934,208c-4.408,0-8-3.592-8-8s3.592-8,8-8s8,3.592,8,8S435.342,208,430.934,208z"/>
	<path style="fill:#3F3A34;" d="M278.934,304c0-13.232-10.768-24-24-24c-13.232,0-24,10.768-24,24s10.768,24,24,24
		C268.166,328,278.934,317.232,278.934,304z M246.934,304c0-4.408,3.592-8,8-8c4.408,0,8,3.592,8,8s-3.592,8-8,8
		C250.526,312,246.934,308.408,246.934,304z"/>
	<path style="fill:#3F3A34;" d="M142.934,326.008V288h16v-48h-96v48h16v38.016L10.102,456.032
		c-2.072,3.912-3.168,8.312-3.168,12.744C6.934,483.792,19.142,496,34.158,496H187.71c15.016,0,27.224-12.208,27.224-27.224
		c0-4.432-1.096-8.832-3.168-12.736L142.934,326.008z M78.934,256h64v16h-64V256z M187.71,480H34.158
		c-6.192,0-11.224-5.032-11.224-11.224c0-1.824,0.448-3.64,1.304-5.248L94.934,330v-42h32v41.992l70.696,133.544
		c0.856,1.608,1.304,3.416,1.304,5.24C198.934,474.968,193.902,480,187.71,480z"/>
	
		<rect x="49.807" y="448.016" transform="matrix(-0.4191 0.908 -0.908 -0.4191 497.2218 593.8936)" style="fill:#3F3A34;" width="17.625" height="15.993"/>
	
		<rect x="46.66" y="388.051" transform="matrix(-0.4189 0.908 -0.908 -0.4189 482.0869 483.5925)" style="fill:#3F3A34;" width="79.294" height="16"/>
</g>
<g>
</g>
<g>
</g>
<g>
</g>
<g>
</g>
<g>
</g>
<g>
</g>
<g>
</g>
<g>
</g>
<g>
</g>
<g>
</g>
<g>
</g>
<g>
</g>
<g>
</g>
<g>
</g>
<g>
</g>
</svg>
