<?xml version="1.0" encoding="iso-8859-1"?>
<!-- Generator: Adobe Illustrator 19.0.0, SVG Export Plug-In . SVG Version: 6.00 Build 0)  -->
<svg version="1.1" id="Capa_1" xmlns="http://www.w3.org/2000/svg" xmlns:xlink="http://www.w3.org/1999/xlink" x="0px" y="0px"
	 viewBox="0 0 496 496" style="enable-background:new 0 0 496 496;" xml:space="preserve">
<g>
	<circle style="fill:#FFCB57;" cx="56" cy="312" r="48"/>
	<circle style="fill:#FFCB57;" cx="336" cy="376" r="88"/>
</g>
<g>
	<rect x="184" y="432" style="fill:#E56565;" width="56" height="16"/>
	<rect x="184" y="304" style="fill:#E56565;" width="56" height="16"/>
	<rect x="432" y="432" style="fill:#E56565;" width="56" height="16"/>
	<rect x="432" y="304" style="fill:#E56565;" width="56" height="16"/>
</g>
<g>
	<path style="fill:#3F3A34;" d="M264,376c0-39.704,32.304-72,72-72c22.856,0,43.856,10.496,57.608,28.8l12.792-9.608
		C389.592,300.832,363.936,288,336,288c-48.52,0-88,39.48-88,88c0,12.232,2.464,24.072,7.32,35.176l14.664-6.408
		C266.008,395.696,264,386.016,264,376z"/>
	<path style="fill:#3F3A34;" d="M404.712,354.416C406.896,361.368,408,368.632,408,376c0,39.704-32.304,72-72,72
		c-22.856,0-43.856-10.496-57.608-28.808l-12.8,9.608C282.4,451.168,308.056,464,336,464c48.52,0,88-39.48,88-88
		c0-8.992-1.352-17.864-4.024-26.384L404.712,354.416z"/>
	<path style="fill:#3F3A34;" d="M360,424v-24h24v-48h-24v-24h-48v24h-24v48h24v24H360z M304,384v-16h24v-24h16v24h24v16h-24v24h-16
		v-24H304z"/>
	<path style="fill:#3F3A34;" d="M472,256h-56v-32c0-17.648-14.352-32-32-32h-96c-17.648,0-32,14.352-32,32v32h-56
		c-13.232,0-24,10.768-24,24v192c0,13.232,10.768,24,24,24h272c13.232,0,24-10.768,24-24V280C496,266.768,485.232,256,472,256z
		 M272,224c0-8.824,7.176-16,16-16h96c8.824,0,16,7.176,16,16v32h-16v-32h-96v32h-16V224z M368,256h-64v-16h64V256z M480,472
		c0,4.416-3.592,8-8,8H200c-4.408,0-8-3.584-8-8V280c0-4.416,3.592-8,8-8h272c4.408,0,8,3.584,8,8V472z"/>
	<path style="fill:#3F3A34;" d="M120,171.28V208h64v-36.72c46.2-13.808,80-56.648,80-107.28V40c0-13.232-10.768-24-24-24h-24V0h-24
		c-13.232,0-24,10.768-24,24s10.768,24,24,24h24V32h24c4.408,0,8,3.592,8,8v24c0,52.936-43.064,96-96,96s-96-43.064-96-96V40
		c0-4.408,3.592-8,8-8h24v16h24c13.232,0,24-10.768,24-24S125.232,0,112,0H88v16H64c-13.232,0-24,10.768-24,24v24
		C40,114.632,73.8,157.472,120,171.28z M200,32h-8c-4.408,0-8-3.592-8-8s3.592-8,8-8h8V32z M168,174.72V192h-32v-17.28
		c5.24,0.752,10.552,1.28,16,1.28S162.76,175.48,168,174.72z M104,16h8c4.408,0,8,3.592,8,8s-3.592,8-8,8h-8V16z"/>
	<path style="fill:#3F3A34;" d="M112,312c0-30.872-25.12-56-56-56S0,281.128,0,312s25.12,56,56,56S112,342.872,112,312z M16,312
		c0-22.056,17.944-40,40-40s40,17.944,40,40s-17.944,40-40,40S16,334.056,16,312z"/>
	<path style="fill:#3F3A34;" d="M80,312c0-13.232-10.768-24-24-24s-24,10.768-24,24s10.768,24,24,24S80,325.232,80,312z M48,312
		c0-4.416,3.592-8,8-8s8,3.584,8,8s-3.592,8-8,8S48,316.416,48,312z"/>
	<path style="fill:#3F3A34;" d="M144,440c0,22.056-17.944,40-40,40s-40-17.944-40-40v-56H48v56c0,30.872,25.12,56,56,56
		s56-25.128,56-56V224h-16V440z"/>
</g>
<g>
</g>
<g>
</g>
<g>
</g>
<g>
</g>
<g>
</g>
<g>
</g>
<g>
</g>
<g>
</g>
<g>
</g>
<g>
</g>
<g>
</g>
<g>
</g>
<g>
</g>
<g>
</g>
<g>
</g>
</svg>
